<?xml version="1.0" encoding="UTF-8"?>
<svg id="Capa_2" data-name="Capa 2" xmlns="http://www.w3.org/2000/svg" viewBox="0 0 10.96 11.94">
  <defs>
    <style>
      .cls-1 {
        fill: #3d3d3d;
      }
    </style>
  </defs>
  <g id="Capa_2-2" data-name="Capa 2">
    <path class="cls-1" d="M10.96,1.51h-3.05s-.18-1.38-.18-1.38c0-.07-.07-.12-.14-.12H3.39c-.07,0-.13.05-.14.12l-.19,1.38H0v.52h.64l.41,9.67c0,.14.12.25.26.25h8.34c.14,0,.25-.11.26-.25l.43-9.67h.64v-.52ZM3.86.52h3.25c.08,0,.16.06.17.15l.11.84h-3.81l.12-.84c.01-.08.08-.15.17-.15ZM9.21,11.42H1.73c-.1,0-.18-.08-.18-.18l-.39-9.22h1.82,0s5,0,5,0h0s1.82,0,1.82,0l-.41,9.22c0,.1-.09.18-.18.18Z"/>
  </g>
</svg>