<?xml version="1.0" encoding="UTF-8"?>
<svg id="Capa_2" data-name="Capa 2" xmlns="http://www.w3.org/2000/svg" viewBox="0 0 32.18 31.64">
  <defs>
    <style>
      .cls-1 {
        fill: #232323;
      }
    </style>
  </defs>
  <g id="Capa_2-2" data-name="Capa 2">
    <g>
      <g>
        <path class="cls-1" d="M14.94,31.52v-.02s-10.81-.11-10.81-.11c-1.08-.01-2.1-.48-2.85-1.32-.83-.92-1.24-2.18-1.13-3.46L2.03,7.4h28.12l1.89,19.19c.11,1.29-.3,2.55-1.13,3.47-.76.84-1.77,1.3-2.85,1.32l-11.34.13h-.63s-1.14,0-1.14,0ZM16.08,29.88h.36s.28,0,.28,0l11.31-.12c.63,0,1.22-.28,1.67-.78.53-.59.79-1.4.72-2.23l-1.75-17.71H3.5l-1.75,17.72c-.07.82.19,1.63.72,2.22.45.5,1.04.78,1.67.78l11.82.13h.11Z"/>
        <path class="cls-1" d="M14.87,31.64v-.03s-10.74-.11-10.74-.11c-1.12-.01-2.17-.49-2.94-1.36-.85-.94-1.28-2.24-1.17-3.56L1.92,7.28h28.34v.11s1.9,19.19,1.9,19.19c.11,1.32-.31,2.62-1.17,3.57-.78.86-1.83,1.34-2.94,1.36l-11.33.13h-.64s-1.22,0-1.22,0ZM2.15,7.53L.27,26.62c-.11,1.25.3,2.47,1.1,3.37.73.81,1.71,1.26,2.76,1.27l10.88.11v.02s1.07-.01,1.07-.01h.64s11.33-.13,11.33-.13c1.05-.01,2.03-.46,2.76-1.27.81-.89,1.21-2.13,1.1-3.38l-1.88-19.07H2.15ZM16.44,30.01h-.36s-.11,0-.11,0l-11.82-.13c-.66,0-1.29-.3-1.76-.82-.55-.61-.83-1.45-.75-2.31l1.76-17.83h25.4v.11s1.76,17.71,1.76,17.71c.07.87-.2,1.71-.75,2.32-.47.52-1.1.82-1.76.82l-11.59.13ZM16.08,29.75h.64s11.32-.13,11.32-.13c.59,0,1.15-.27,1.58-.74.5-.56.76-1.34.69-2.13l-1.73-17.59H3.62l-1.74,17.61c-.07.79.18,1.56.69,2.12.43.47.99.73,1.58.74l11.82.13h.11Z"/>
      </g>
      <g>
        <path class="cls-1" d="M24.87,14.58h-1.62v-5.32c0-1.49-.35-2.89-1.01-4.05-1.31-2.32-3.33-3.49-6.02-3.45-2.36.03-4.26.95-5.65,2.74-1.06,1.37-1.64,3.17-1.64,5.07v5.01h-1.62v-5.01c0-2.27.7-4.42,1.98-6.08C10.98,1.32,13.36.16,16.2.13c4.14-.03,6.33,2.3,7.45,4.27.8,1.41,1.22,3.09,1.22,4.86v5.32Z"/>
        <path class="cls-1" d="M24.99,14.7h-1.87v-5.44c0-1.47-.34-2.85-.99-3.99-1.29-2.29-3.27-3.43-5.91-3.39-2.32.03-4.19.93-5.55,2.69-1.04,1.35-1.62,3.12-1.62,5v5.13h-1.87v-5.13c0-2.29.71-4.48,2.01-6.15C10.9,1.22,13.32.03,16.2,0c.02,0,.04,0,.07,0,4.17,0,6.37,2.36,7.49,4.34.81,1.43,1.23,3.13,1.23,4.92v5.44ZM23.37,14.45h1.37v-5.19c0-1.75-.42-3.41-1.2-4.8-1.09-1.92-3.23-4.21-7.27-4.21-.02,0-.04,0-.06,0-2.8.03-5.15,1.18-6.81,3.32-1.26,1.63-1.96,3.76-1.96,6v4.88h1.37v-4.88c0-1.93.59-3.76,1.67-5.15,1.41-1.82,3.34-2.76,5.74-2.79.05,0,.1,0,.15,0,2.65,0,4.66,1.18,5.98,3.51.67,1.18,1.02,2.61,1.02,4.12v5.19Z"/>
      </g>
    </g>
  </g>
</svg>