<?xml version="1.0" encoding="UTF-8"?>
<svg id="Capa_2" data-name="Capa 2" xmlns="http://www.w3.org/2000/svg" viewBox="0 0 32.18 31.64">
  <defs>
    <style>
      .cls-1 {
        fill: #e4dfd5;
        stroke: #e4dfd5;
        stroke-miterlimit: 10;
        stroke-width: .25px;
      }
    </style>
  </defs>
  <g id="Capa_2-2" data-name="Capa 2">
    <g>
      <path class="cls-1" d="M14.94,31.52v-.02s-10.81-.11-10.81-.11c-1.08-.01-2.1-.48-2.85-1.32-.83-.92-1.24-2.18-1.13-3.46L2.03,7.4h28.12l1.89,19.19c.11,1.29-.3,2.55-1.13,3.47-.76.84-1.77,1.3-2.85,1.32l-11.34.13h-.63s-1.14,0-1.14,0ZM16.08,29.88h.36s.28,0,.28,0l11.31-.12c.63,0,1.22-.28,1.67-.78.53-.59.79-1.4.72-2.23l-1.75-17.71H3.5l-1.75,17.72c-.07.82.19,1.63.72,2.22.45.5,1.04.78,1.67.78l11.82.13h.11Z"/>
      <path class="cls-1" d="M24.87,14.58h-1.62v-5.32c0-1.49-.35-2.89-1.01-4.05-1.31-2.32-3.33-3.49-6.02-3.45-2.36.03-4.26.95-5.65,2.74-1.06,1.37-1.64,3.17-1.64,5.07v5.01h-1.62v-5.01c0-2.27.7-4.42,1.98-6.08C10.98,1.32,13.36.16,16.2.13c4.14-.03,6.33,2.3,7.45,4.27.8,1.41,1.22,3.09,1.22,4.86v5.32Z"/>
    </g>
  </g>
</svg>