<?xml version="1.0" encoding="UTF-8"?>
<svg id="Capa_2" data-name="Capa 2" xmlns="http://www.w3.org/2000/svg" viewBox="0 0 32.06 32.26">
  <defs>
    <style>
      .cls-1 {
        fill: #e4dfd5;
      }
    </style>
  </defs>
  <g id="Capa_2-2" data-name="Capa 2">
    <g>
      <g>
        <g>
          <polygon class="cls-1" points="21.52 21.15 21.01 21.66 30.45 31.16 30.96 30.64 21.52 21.15"/>
          <polygon class="cls-1" points="30.45 31.69 20.48 21.66 21.52 20.62 31.49 30.64 30.45 31.69"/>
        </g>
        <g>
          <polygon class="cls-1" points="30.45 31.73 20.43 21.66 21.52 20.57 31.53 30.64 30.45 31.73"/>
          <path class="cls-1" d="M30.45,32.26l-10.55-10.6,1.61-1.62,10.54,10.6-1.61,1.62ZM20.96,21.66l9.49,9.54.55-.56-9.49-9.54-.56.56Z"/>
        </g>
      </g>
      <g>
        <path class="cls-1" d="M12.98,25.71C6.03,25.71.37,20.03.37,13.04S6.03.37,12.98.37s12.6,5.68,12.6,12.67-5.65,12.67-12.6,12.67ZM12.98,2C6.92,2,2,6.96,2,13.04s4.93,11.04,10.98,11.04,10.98-4.95,10.98-11.04S19.03,2,12.98,2Z"/>
        <path class="cls-1" d="M12.98,26.09C5.82,26.09,0,20.24,0,13.04S5.82,0,12.98,0s12.98,5.85,12.98,13.04-5.82,13.04-12.98,13.04ZM12.98.75C6.23.75.75,6.27.75,13.04s5.48,12.29,12.23,12.29,12.23-5.52,12.23-12.29S19.72.75,12.98.75ZM12.98,24.46c-6.26,0-11.36-5.12-11.36-11.42S6.71,1.63,12.98,1.63s11.36,5.12,11.36,11.42-5.09,11.42-11.36,11.42ZM12.98,2.38C7.13,2.38,2.37,7.16,2.37,13.04s4.76,10.67,10.61,10.67,10.61-4.78,10.61-10.67S18.82,2.38,12.98,2.38Z"/>
      </g>
    </g>
  </g>
</svg>