<?xml version="1.0" encoding="UTF-8"?>
<svg id="Capa_2" data-name="Capa 2" xmlns="http://www.w3.org/2000/svg" viewBox="0 0 70.53 38.52">
  <defs>
    <style>
      .cls-1 {
        fill: #e4dfd5;
      }
    </style>
  </defs>
  <g id="Capa_2-2" data-name="Capa 2">
    <g>
      <g>
        <g>
          <g>
            <polyline class="cls-1" points=".78 2.64 .78 .78 69.75 .78"/>
            <polygon class="cls-1" points="1.28 2.64 .28 2.64 .28 .28 69.75 .28 69.75 1.28 1.28 1.28 1.28 2.64"/>
          </g>
          <g>
            <polygon class="cls-1" points="1.06 2.64 .5 2.64 .5 .5 69.75 .5 69.75 1.07 1.06 1.07 1.06 2.64"/>
            <polygon class="cls-1" points="1.56 3.14 0 3.14 0 0 70.25 0 70.25 1.57 1.56 1.57 1.56 3.14"/>
          </g>
        </g>
        <g>
          <g>
            <polyline class="cls-1" points="69.75 .78 69.75 2.64 .78 2.64"/>
            <polygon class="cls-1" points="70.25 3.14 .78 3.14 .78 2.14 69.25 2.14 69.25 .78 70.25 .78 70.25 3.14"/>
          </g>
          <g>
            <polygon class="cls-1" points="70.03 2.92 .78 2.92 .78 2.36 69.47 2.36 69.47 .78 70.03 .78 70.03 2.92"/>
            <polygon class="cls-1" points="70.53 3.42 .28 3.42 .28 1.86 68.97 1.86 68.97 .28 70.53 .28 70.53 3.42"/>
          </g>
        </g>
      </g>
      <g>
        <g>
          <g>
            <polyline class="cls-1" points=".78 20.19 .78 18.33 69.75 18.33"/>
            <polygon class="cls-1" points="1.28 20.19 .28 20.19 .28 17.83 69.75 17.83 69.75 18.83 1.28 18.83 1.28 20.19"/>
          </g>
          <g>
            <polygon class="cls-1" points="1.06 20.19 .5 20.19 .5 18.05 69.75 18.05 69.75 18.61 1.06 18.61 1.06 20.19"/>
            <polygon class="cls-1" points="1.56 20.69 0 20.69 0 17.55 70.25 17.55 70.25 19.11 1.56 19.11 1.56 20.69"/>
          </g>
        </g>
        <g>
          <g>
            <polyline class="cls-1" points="69.75 18.33 69.75 20.19 .78 20.19"/>
            <polygon class="cls-1" points="70.25 20.69 .78 20.69 .78 19.69 69.25 19.69 69.25 18.33 70.25 18.33 70.25 20.69"/>
          </g>
          <g>
            <polygon class="cls-1" points="70.03 20.47 .78 20.47 .78 19.9 69.47 19.9 69.47 18.33 70.03 18.33 70.03 20.47"/>
            <polygon class="cls-1" points="70.53 20.97 .28 20.97 .28 19.4 68.97 19.4 68.97 17.83 70.53 17.83 70.53 20.97"/>
          </g>
        </g>
      </g>
      <g>
        <g>
          <g>
            <polyline class="cls-1" points=".78 37.73 .78 35.88 69.75 35.88"/>
            <polygon class="cls-1" points="1.28 37.73 .28 37.73 .28 35.38 69.75 35.38 69.75 36.38 1.28 36.38 1.28 37.73"/>
          </g>
          <g>
            <polygon class="cls-1" points="1.06 37.73 .5 37.73 .5 35.59 69.75 35.59 69.75 36.16 1.06 36.16 1.06 37.73"/>
            <polygon class="cls-1" points="1.56 38.23 0 38.23 0 35.09 70.25 35.09 70.25 36.66 1.56 36.66 1.56 38.23"/>
          </g>
        </g>
        <g>
          <g>
            <polyline class="cls-1" points="69.75 35.88 69.75 37.73 .78 37.73"/>
            <polygon class="cls-1" points="70.25 38.23 .78 38.23 .78 37.23 69.25 37.23 69.25 35.88 70.25 35.88 70.25 38.23"/>
          </g>
          <g>
            <polygon class="cls-1" points="70.03 38.02 .78 38.02 .78 37.45 69.47 37.45 69.47 35.88 70.03 35.88 70.03 38.02"/>
            <polygon class="cls-1" points="70.53 38.52 .28 38.52 .28 36.95 68.97 36.95 68.97 35.38 70.53 35.38 70.53 38.52"/>
          </g>
        </g>
      </g>
    </g>
  </g>
</svg>