<?xml version="1.0" encoding="UTF-8"?>
<svg id="Capa_2" data-name="Capa 2" xmlns="http://www.w3.org/2000/svg" viewBox="0 0 28.22 28.22">
  <defs>
    <style>
      .cls-1 {
        fill: #efebe4;
      }
    </style>
  </defs>
  <g id="Capa_2-2" data-name="Capa 2">
    <g>
      <path class="cls-1" d="M21.58,5.04c-.91,0-1.65.74-1.65,1.65s.74,1.65,1.65,1.65,1.65-.74,1.65-1.65-.74-1.65-1.65-1.65Z"/>
      <path class="cls-1" d="M14.23,7.16c-3.83,0-6.95,3.12-6.95,6.95s3.12,6.95,6.95,6.95,6.95-3.12,6.95-6.95-3.12-6.95-6.95-6.95ZM14.23,18.56c-2.46,0-4.45-2-4.45-4.45s2-4.45,4.45-4.45,4.45,2,4.45,4.45-2,4.45-4.45,4.45Z"/>
      <path class="cls-1" d="M19.75,28.22h-11.27c-4.67,0-8.48-3.8-8.48-8.48v-11.27C0,3.8,3.8,0,8.48,0h11.27c4.67,0,8.48,3.8,8.48,8.48v11.27c0,4.67-3.8,8.48-8.48,8.48ZM8.48,2.66c-3.21,0-5.82,2.61-5.82,5.82v11.27c0,3.21,2.61,5.82,5.82,5.82h11.27c3.21,0,5.82-2.61,5.82-5.82v-11.27c0-3.21-2.61-5.82-5.82-5.82h-11.27Z"/>
    </g>
  </g>
</svg>