<?xml version="1.0" encoding="UTF-8"?>
<svg id="Capa_2" data-name="Capa 2" xmlns="http://www.w3.org/2000/svg" viewBox="0 0 611.49 97.77">
  <defs>
    <style>
      .cls-1 {
        fill: #c52462;
      }

      .cls-2 {
        fill: #fff;
      }

      .cls-3 {
        fill: #423b3f;
      }
    </style>
  </defs>
  <g id="Capa_2-2" data-name="Capa 2">
    <rect class="cls-2" width="611.49" height="97.77"/>
    <g>
      <polygon class="cls-1" points="300.65 61.35 289.33 48.59 300.65 36.41 311.38 48.59 300.65 61.35"/>
      <path class="cls-3" d="M510.22,36.41c-.22.51-1.11.49-1.62.79-.3.18-.59.44-.79.73-.32.46-.9,2.4-.9,2.89v7.68h10.94c-.18-3.58.61-7.58-1.13-10.85l-2.18-1.24h9.92l-2.29,1.2c-.61.93-.93,2.09-1.02,3.2-.35,4.13-.4,12.54.04,16.61.12,1.07.53,2.71,1.51,3.29.5.29,1.33.18,1.51.65h-9.41l2-1.17c.25-.5.55-1.05.69-1.59.07-.29.36-1.97.36-2.16v-6.93h-10.94v7.68c0,.49.69,2.57,1.05,2.99l2,1.17h-9.41c.18-.46,1.01-.36,1.51-.65.99-.58,1.4-2.46,1.51-3.54.32-3.1.44-15.41-.35-17.99-.26-.84-.52-1.5-1.31-1.97-.5-.3-1.39-.29-1.62-.79h9.92Z"/>
      <path class="cls-3" d="M159.51,42.96l-1.68-4.01c-.68-.73-2.84-1.54-3.79-1.54h-7.25v11.09h4.7c.11,0,1.7-.3,1.92-.36.8-.22,1.7-.69,2.13-1.42.29-.5.2-1.31.66-1.49v7.31l-1.14-2.02c-.3-.28-1.97-1-2.29-1h-5.98v11.09h6.49c.62,0,2.62-.33,3.29-.52,1.19-.33,2.08-1.05,2.74-2.07l.97-2.95v6.3h-20.09c.18-.46,1-.36,1.51-.65,1.51-.86,1.71-3.66,1.81-5.26.24-3.8.25-9.33,0-13.12-.08-1.29-.37-3.84-1.28-4.78l-2.04-1.13h18.95l.38.38v6.17Z"/>
      <path class="cls-3" d="M106.1,36.41v6.3l-.83-2.58c-.47-1.45-3-2.71-4.38-2.71h-7.5v11.09h4.96c.68,0,2.88-.65,3.42-1.15.8-.73.47-1.59,1.28-2.13v7.56c-.63-.42-.58-1.63-1.1-2.19-.27-.29-2.27-1.08-2.59-1.08h-5.98v11.09h6.49c.74,0,2.92-.38,3.69-.63,2.45-.79,2.46-2.15,3.12-4.21.09-.27.06-.76.43-.7v6.3h-20.09l2.04-1.13c.48-.58.9-2.06.98-2.81.35-2.97.4-16.02-.35-18.5-.58-1.92-1.33-1.41-2.68-2.51h19.07Z"/>
      <path class="cls-3" d="M343.76,36.41l15.39,20.16v-16.25c0-.44-.67-2.32-1.01-2.71l-2.29-1.2h7.63l-2.29,1.38c-.34.43-1.01,2.32-1.01,2.78v20.79l-1.14-.26-14.88-19.65v16c0,.44.67,2.37,1.01,2.78l2.04,1.13h-7.12c.18-.46,1.01-.36,1.51-.65.99-.58,1.4-2.46,1.51-3.54.32-3.1.44-15.41-.35-17.99-.26-.84-.52-1.5-1.31-1.97-.5-.3-1.39-.29-1.62-.79h3.94Z"/>
      <path class="cls-3" d="M171.21,36.41l15.01,19.9v-16.25c0-.22-.7-2.13-.91-2.38-.61-.74-1.65-.56-2.15-1.28h7.38c-.22.51-1.12.49-1.62.79-.29.18-.6.45-.79.73-.29.43-.9,2.69-.9,3.14v20.28l-.97-.05-15.06-19.85v15.24c0,.12.3,1.67.37,1.91.19.72.57,1.67,1.23,2.06.52.3,1.46.21,1.71.7h-7.38c.18-.46,1.01-.35,1.51-.65.6-.35,1.01-1.17,1.22-1.82.68-2.11.62-15.84.3-18.55-.07-.64-.49-2.18-.88-2.66-.61-.74-1.65-.56-2.15-1.27h4.07Z"/>
      <path class="cls-3" d="M116.02,60.09v-5.79h.76c.29,1.95,1.57,4.13,3.18,5.29,2.54,1.83,7.65,1.07,8.9-2.02,2.33-5.75-6.51-9.48-9.91-12.35-9.36-7.91,6.48-11.18,11.82-7.17v5.29c0,.1-.39.55-.64.13-.72-1.2-.53-2.91-1.9-4.41-3.32-3.64-13.25-1.33-6.73,4.4,3.74,3.29,13.15,6.87,10.59,13.53-2.1,5.47-11.56,5.11-16.07,3.1Z"/>
      <path class="cls-3" d="M235.8,61.35l2.54-1.39c4.18-6.47,5.59-14.49,8.47-21.6l-.33-1.96,3.06.12c2.92,6.24,4.28,13.65,7.15,19.87.71,1.54,1.52,3.13,2.93,4.16l1.87.79h-9.66c.25-.53,1.46-.39,1.8-.93,1.16-1.83-2.23-8.73-2.72-10.93-1.16.22-6.59-.34-7.1.26-.19.23-1.77,4.89-1.98,5.6-.39,1.29-1.47,4.25-.32,5.25.5.44,1.42.22,1.67.74h-7.38ZM250.55,48.5c-1.16-2.6-1.6-5.63-2.79-8.2-.11-.25-.17-.59-.52-.62l-3.05,8.82h6.36Z"/>
      <path class="cls-3" d="M366.27,61.35l1.87-.79c1.11-.64,2.21-2.66,2.75-3.82,2.7-5.77,4.29-12.89,6.52-18.88l-.46-1.44,3.33.15c3.09,7.66,4.68,16.21,8.99,23.29l2.68,1.5h-9.41c.28-.53,1.31-.29,1.65-1.01,1.06-2.22-2.2-8.36-2.71-10.8l-7.11.11c-.45,2.41-3.68,8.52-2.64,10.68.34.71,1.38.47,1.65,1.01h-7.12ZM374.92,48.5h6.1l-2.93-8.82-3.18,8.82Z"/>
      <path class="cls-3" d="M468.51,61.35l2.68-1.5c4.06-6.56,5.57-14.52,8.4-21.67l-.4-1.77,3.33.15,7.13,20.35,2.12,3.19,2.42,1.25h-9.66c.32-.59,1.28-.21,1.76-.9,1.24-1.8-2.1-8.81-2.68-10.96-1.16.22-6.59-.34-7.1.26-.23.28-2.07,5.99-2.28,6.81-.31,1.17-.98,2.9-.14,3.91.5.61,1.24.35,1.53.87h-7.12ZM483.26,48.5c-.99-2.55-1.66-5.76-2.79-8.2-.11-.25-.17-.59-.52-.62l-3.05,8.82h6.36Z"/>
      <path class="cls-3" d="M417.14,42.96c-.37.06-.35-.44-.43-.7-.53-1.64-.62-3.22-2.44-4.14-.32-.16-2.1-.71-2.34-.71h-3.69v20.28c0,.76.82,2.58,1.54,3.01.5.29,1.33.18,1.51.65h-9.41l2-1.17c.26-.51.54-1.04.69-1.59.06-.24.37-1.79.37-1.91v-19.27h-3.69c-.83,0-3.1.97-3.69,1.63l-1.52,3.91v-6.55h20.73l.38.38v6.17Z"/>
      <path class="cls-3" d="M453.25,36.41c-.34.62-1.39.43-1.9,1.01-.75.86-.21,2.45.05,3.47,1.39,5.52,4.15,11.2,5.79,16.69,1.64-5.27,4-10.42,5.47-15.75.32-1.15,1.15-3.39.36-4.4-.47-.61-1.57-.39-1.89-1.02h7.63l-2.16,1.01c-1.92,1.71-2.79,4.09-3.69,6.42-2.16,5.6-3.74,11.48-5.89,17.1-.33.66-1.31.42-1.97.39l-6.93-19.97-2.12-3.45-2.68-1.5h9.92Z"/>
      <path class="cls-3" d="M212.41,43.72c-.56.64-1.4-3-1.56-3.36-1.86-4.1-6.55-3.76-9.22-.65-3.92,4.57-4.04,12.39-.76,17.34,3.79,5.73,10.59,3.86,12.82-1.99.95.4.66.92.3,1.68-3.23,6.78-12.85,5.67-16.53-.09-6.7-10.49,2.61-25.32,14.96-18.6v5.67Z"/>
      <path class="cls-3" d="M231.99,36.41c-.31.54-1.2.5-1.77.89-.74.51-1,1.25-1.21,2.07-.64,2.44-.66,16.86,0,19.26.19.69.47,1.29.96,1.82l2.02.9h-9.92c.22-.41,1-.33,1.54-.61,1.32-.69,1.66-2.67,1.77-4.04.32-4.06.38-11.85-.04-15.85-.08-.81-.41-2.25-.87-2.92-.65-.94-1.54-.75-2.15-1.52h9.66Z"/>
      <path class="cls-3" d="M434.69,36.41c-.44.66-1.78.56-2.3,1.19-.15.18-.6,1.24-.68,1.53-.75,2.7-.63,14.87-.29,18.04.11,1.08.52,2.96,1.51,3.54.5.29,1.33.19,1.51.65h-9.41l2-1.17c.59-1.04.9-2.34,1.02-3.53.31-3.26.46-14.71-.34-17.49-.22-.75-.5-1.41-1.17-1.87-.57-.39-1.46-.35-1.77-.89h9.92Z"/>
    </g>
  </g>
</svg>