<?xml version="1.0" encoding="UTF-8"?>
<svg id="Capa_2" data-name="Capa 2" xmlns="http://www.w3.org/2000/svg" viewBox="0 0 25.06 31.97">
  <defs>
    <style>
      .cls-1 {
        fill: #efebe4;
      }
    </style>
  </defs>
  <g id="Capa_2-2" data-name="Capa 2">
    <path class="cls-1" d="M13.97,0c8.05.67,12.48,6.69,10.69,14.66-1.33,5.91-6.66,10.85-12.86,8.01l-1.02-.7c-.64,2.5-1.17,5.06-2.32,7.39-.44.89-1.77,3.3-3.02,2.41-.81-.57-.76-2.86-.72-3.78.21-4.3,1.97-8.76,2.73-13-1.43-2.91-.01-8.81,4.09-7.99s1.17,7,.7,9.47c-.44,2.32,1.56,3.49,3.59,2.65,3.25-1.33,4.39-7.59,3.62-10.61-1.34-5.25-8.8-5.58-12.33-2.41-2.16,1.95-3.56,5.95-1.99,8.61.28.47.84.96.84,1.53,0,.38-.42,2.01-.62,2.32-.52.84-1.41.46-2.09.07C-.22,16.66-.61,11.39.67,7.96,2.49,3.12,7.19.3,12.22,0h1.75Z"/>
  </g>
</svg>