<?xml version="1.0" encoding="UTF-8"?>
<svg id="Capa_2" data-name="Capa 2" xmlns="http://www.w3.org/2000/svg" viewBox="0 0 24.74 28.17">
  <defs>
    <style>
      .cls-1 {
        fill: #efebe4;
      }
    </style>
  </defs>
  <g id="Capa_2-2" data-name="Capa 2">
    <path class="cls-1" d="M8.56,28.17c-5.67-.22-9.8-5.54-8.23-11.11,1.19-4.21,5.5-6.91,9.82-6.22v4.62c-1-.21-1.86-.26-2.83.11-5.13,1.94-2.1,9.83,3.09,7.71,2.94-1.2,2.57-4.05,2.61-6.69.08-5.53-.06-11.06,0-16.59h4.57c0,3.58,2.84,6.71,6.41,7.04.24.02.56-.08.74.08v4.48c-1.83.06-3.63-.42-5.26-1.2l-1.89-1.16c.01,2.74-.02,5.49,0,8.23,0,.95.1,1.9,0,2.86-.45,4.34-4.15,7.67-8.47,7.84h-.55Z"/>
  </g>
</svg>